# Blender3D v249 OBJ File: 
# www.blender3d.org
mtllib cube.mtl
v 1.000000 -1.000000 -1.000000
v 1.000000 -1.000000 1.000000
v -1.000000 -1.000000 1.000000
v -1.000000 -1.000000 -1.000000
v 1.000000 1.000000 -1.000000
v 0.999999 1.000000 1.000001
v -1.000000 1.000000 1.000000
v -1.000000 1.000000 -1.000000
vt 0.333333 0.498471
vt 0.001020 0.500000
vt 0.332314 0.000000
vt 0.000000 0.001529
vt 0.000000 0.998471
vt 0.333333 0.501529
vt 0.332314 1.000000
vt 0.998981 0.500000
vt 1.000000 0.998471
vt 0.666667 0.501529
vt 0.667686 1.000000
vt 0.665647 0.000000
vt 0.666667 0.498471
vt 0.333333 0.001529
vt 0.334353 0.500000
vt 1.000000 0.001529
vt 0.667686 0.000000
vt 0.334353 1.000000
vt 0.665647 0.500000
vt 0.666667 0.998471
vn 0.000000 0.000000 -1.000000
vn -1.000000 -0.000000 -0.000000
vn -0.000000 -0.000000 1.000000
vn -0.000001 0.000000 1.000000
vn 1.000000 -0.000000 0.000000
vn 1.000000 0.000000 0.000001
vn 0.000000 1.000000 -0.000000
vn -0.000000 -1.000000 0.000000
usemtl Material_cube_diffuse.png
s off
f 5/1/1 1/2/1 8/3/1
f 1/2/1 4/4/1 8/3/1
f 3/5/2 7/2/2 8/6/2
f 3/5/2 8/6/2 4/7/2
f 2/8/3 6/9/3 3/10/3
f 6/9/4 7/11/4 3/10/4
f 1/12/5 5/13/5 2/14/5
f 5/13/6 6/15/6 2/14/6
f 5/16/7 8/8/7 7/13/7
f 5/16/7 7/13/7 6/17/7
f 1/18/8 2/6/8 3/19/8
f 1/18/8 3/19/8 4/20/8
