# Blender3D v249 OBJ File: multitex.blend
# www.blender3d.org
mtllib multitex.mtl
o Cube
v -1.480827 -0.840934 0.316198
v -1.055699 1.016836 0.922792
v -0.336200 1.445227 -0.893469
v -0.761329 -0.412543 -1.500062
v 0.336200 -1.445227 0.893470
v 0.761329 0.412543 1.500062
v 1.480827 0.840934 -0.316198
v 1.055699 -1.016836 -0.922791
vt 0.001953 0.988281
vt 0.000000 0.001529
vt 0.498471 0.000000
vt 0.505859 0.990234
vt 0.998471 0.000000
vt 1.000000 0.498471
vt 0.500000 0.001529
vt 0.501529 0.500000
vt 1.000000 0.501529
vt 0.998471 1.000000
vt 0.500000 0.998471
vt 0.000000 0.498471
vt 0.001529 0.000000
vt 0.498471 0.500000
vt 0.001529 1.000000
vt 0.000000 0.501529
vn -0.212564 -0.928885 -0.303297
vn -0.212564 -0.928885 -0.303296
vn -0.359750 -0.214196 0.908130
vn -0.359749 -0.214195 0.908131
vn 0.908514 -0.302147 0.288636
vn 0.359749 0.214196 -0.908130
vn 0.212564 0.928885 0.303297
vn 0.212564 0.928885 0.303296
vn -0.908514 0.302147 -0.288635
vn -0.908514 0.302147 -0.288636
usemtl RedMat_red.tga
s off
f 5/1/1 1/2/1 4/3/1
f 5/1/2 4/3/2 8/4/2
f 1/5/3 5/6/3 2/7/3
f 5/6/4 6/8/4 2/7/4
f 5/9/5 8/10/5 6/8/5
f 8/10/5 7/11/5 6/8/5
usemtl BlueMat_blue.tga
f 3/12/6 7/13/6 8/7/6
f 3/12/6 8/7/6 4/14/6
f 2/5/7 6/6/7 3/7/7
f 6/6/8 7/8/8 3/7/8
f 1/11/9 2/15/9 3/16/9
f 1/11/10 3/16/10 4/14/10
